<?xml version="1.0" encoding="utf-8"?>
<!-- Generator: Adobe Illustrator 22.0.0, SVG Export Plug-In . SVG Version: 6.00 Build 0)  -->
<svg version="1.1" id="Ebene_4_Kopie_3" xmlns="http://www.w3.org/2000/svg" xmlns:xlink="http://www.w3.org/1999/xlink" x="0px"
	 y="0px" viewBox="0 0 223.2 259.1" style="enable-background:new 0 0 223.2 259.1;" xml:space="preserve">
<style type="text/css">
	.st0{fill:none;stroke:#000000;stroke-width:2;stroke-miterlimit:10;}
	.st1{stroke:#000000;stroke-width:2;stroke-miterlimit:10;}
</style>
<g>
	<path class="st0" d="M123.1,252.1c-1.3,0.3-2.7,0.6-4,0.8C120.4,252.6,121.8,252.4,123.1,252.1z"/>
	<path class="st0" d="M129.5,250.6c-1.4,0.3-2.7,0.7-4.1,1C126.7,251.3,128.1,251,129.5,250.6z"/>
	<path class="st0" d="M135.7,249c-1.4,0.4-2.8,0.8-4.2,1.2C132.9,249.8,134.3,249.4,135.7,249z"/>
	<path class="st0" d="M95.7,255.8c-1.1,0.1-2.1,0.2-3.2,0.2C93.6,256,94.6,255.9,95.7,255.8z"/>
	<path class="st0" d="M102.9,255.2c-1.2,0.1-2.3,0.3-3.5,0.4C100.5,255.5,101.7,255.3,102.9,255.2z"/>
	<path class="st0" d="M109.8,254.4c-1.2,0.2-2.5,0.3-3.7,0.5C107.3,254.7,108.6,254.5,109.8,254.4z"/>
	<path class="st0" d="M116.5,253.3c-1.3,0.2-2.6,0.4-3.9,0.6C113.9,253.8,115.2,253.6,116.5,253.3z"/>
	<path class="st0" d="M88.1,256.3c-0.9,0-1.7,0.1-2.6,0.1C86.4,256.3,87.2,256.3,88.1,256.3z"/>
	<path class="st0" d="M164.7,237.8c-1.5,0.8-3.1,1.5-4.7,2.3C161.6,239.3,163.1,238.6,164.7,237.8z"/>
	<path class="st0" d="M170,235c-1.6,0.9-3.2,1.7-4.8,2.5C166.9,236.7,168.5,235.9,170,235z"/>
	<path class="st0" d="M175.3,232c-1.6,1-3.2,1.9-4.9,2.8C172,233.9,173.6,232.9,175.3,232z"/>
	<path class="st0" d="M147.8,245.1c-1.5,0.5-2.9,1.1-4.4,1.5C144.8,246.2,146.3,245.6,147.8,245.1z"/>
	<path class="st0" d="M159.2,240.4c-1.5,0.7-3.1,1.4-4.6,2C156.1,241.8,157.7,241.1,159.2,240.4z"/>
	<path class="st0" d="M141.8,247.2c-1.4,0.5-2.9,0.9-4.3,1.3C138.9,248.1,140.4,247.6,141.8,247.2z"/>
	<path class="st0" d="M153.5,242.9c-1.5,0.6-3,1.2-4.5,1.8C150.6,244.1,152.1,243.5,153.5,242.9z"/>
	<path class="st0" d="M108.4,236.1c-20.6,0-32.8-4.4-36.7-13.2C75.6,231.7,87.8,236.1,108.4,236.1z"/>
	<path class="st0" d="M162,218c0.7-0.6,1.4-1.1,2-1.7C163.3,216.8,162.6,217.4,162,218z"/>
	<path class="st0" d="M85.8,49.7c-5.8,0.9-14.1,3.4-25,7.5c1.9,2.3,3.1,4.8,3.6,7.4c-0.5-2.7-1.7-5.1-3.6-7.4
		C71.6,53.1,80,50.6,85.8,49.7z"/>
	<path class="st0" d="M90,49.3C90,49.3,90,49.3,90,49.3c1.6,0,3.1,0.2,4.3,0.7C93.1,49.5,91.7,49.3,90,49.3z"/>
	<path class="st0" d="M71,220.8c0.2,0.7,0.4,1.4,0.7,2.1C71.4,222.2,71.2,221.5,71,220.8z"/>
	<path class="st0" d="M204.9,129.5c-10.6-10.2-25.2-17.9-43.9-23c32-19.7,48-40.8,48-63.3c0-12.1-6-21.9-18.1-29.4
		c-12.1-7.5-27.9-11.2-47.6-11.2c-35.1,0-67.4,7.5-96.8,22.6C17,40.3,2.3,56.9,2.3,75.1c0,5.2,1.4,10.7,4.1,16.5
		C43.1,46.5,85,23.9,132.1,23.9c29.1,0,43.7,9.6,43.7,28.7c0,16.1-11.2,32.5-33.7,48.9c-4.4-0.3-8-0.5-10.6-0.5
		c-10.2,0-17.6,2-22.2,5.9c-4.6,3.9-8.4,11.5-11.5,22.8c4.1,1,7.5,1.4,10.3,1.4c8.1,0,15.6-1.4,22.5-4.1c19.2,4,32.9,9.7,41.2,17.1
		c8.2,7.4,12.3,17.6,12.3,30.8c0,15.2-6.1,28.5-18.3,39.8c4.4,2.4,9.1,7.4,9.5,17.3c1.3-0.8,2.6-1.6,3.9-2.4
		c27.8-17.9,41.6-39.7,41.6-65.2C220.8,151.4,215.5,139.8,204.9,129.5z"/>
	<path class="st0" d="M50.7,142.6l-11.2,56.1c-2.8,13.9-4.3,23.4-4.7,28.5c0.3-5.1,1.9-14.6,4.7-28.5L50.7,142.6z"/>
	<path class="st0" d="M35.9,237c3.8,13,18,19.5,42.5,19.5c0,0,0,0,0,0C53.8,256.5,39.7,250,35.9,237z"/>
	<path class="st0" d="M35.9,237c-0.4-1.4-0.7-3-0.9-4.6C35.1,234,35.4,235.5,35.9,237z"/>
	<path class="st1" d="M92.5,256.1c-1.5,0.1-2.9,0.1-4.4,0.2C89.5,256.2,91,256.1,92.5,256.1z"/>
	<path class="st1" d="M154.6,242.4c-0.3,0.1-0.7,0.3-1,0.4C153.9,242.7,154.2,242.6,154.6,242.4z"/>
	<path class="st1" d="M64.5,69.7c-0.3,3.9-1.1,9.5-2.6,16.7l-11.2,56.1l11.2-56.1C63.3,79.2,64.2,73.6,64.5,69.7z"/>
	<path class="st1" d="M64.5,69.7c0-0.6,0.1-1.2,0.1-1.7C64.5,68.6,64.5,69.1,64.5,69.7z"/>
	<path class="st1" d="M160,240.1c-0.3,0.1-0.5,0.3-0.8,0.4C159.5,240.3,159.7,240.2,160,240.1z"/>
	<path class="st1" d="M149,244.6c-0.4,0.2-0.9,0.3-1.3,0.5C148.2,245,148.6,244.8,149,244.6z"/>
	<path class="st1" d="M78.3,256.5c2.4,0,4.8,0,7.2-0.1C83.1,256.4,80.7,256.5,78.3,256.5C78.3,256.5,78.3,256.5,78.3,256.5z"/>
	<path class="st1" d="M170.4,234.8c-0.1,0.1-0.2,0.1-0.3,0.2C170.2,234.9,170.3,234.9,170.4,234.8z"/>
	<polygon class="st1" points="175.3,232 175.3,232 175.3,232 	"/>
	<path class="st1" d="M165.3,237.5c-0.2,0.1-0.4,0.2-0.6,0.3C164.9,237.7,165.1,237.6,165.3,237.5z"/>
	<path class="st1" d="M125.3,251.6c-0.8,0.2-1.5,0.3-2.3,0.5C123.8,251.9,124.6,251.8,125.3,251.6z"/>
	<path class="st1" d="M99.4,255.6c-1.2,0.1-2.4,0.2-3.7,0.3C96.9,255.8,98.1,255.7,99.4,255.6z"/>
	<path class="st1" d="M119.1,252.9c-0.8,0.2-1.7,0.3-2.5,0.4C117.4,253.2,118.2,253,119.1,252.9z"/>
	<path class="st1" d="M112.6,254c-0.9,0.1-1.9,0.3-2.9,0.4C110.7,254.2,111.7,254.1,112.6,254z"/>
	<path class="st1" d="M90,49.3c-1.2,0-2.7,0.1-4.3,0.4C87.4,49.4,88.8,49.3,90,49.3C90,49.3,90,49.3,90,49.3z"/>
	<path class="st1" d="M106.1,254.9c-1.1,0.1-2.1,0.2-3.2,0.3C103.9,255.1,105,255,106.1,254.9z"/>
	<path class="st1" d="M137.5,248.5c-0.6,0.2-1.2,0.3-1.8,0.5C136.3,248.8,136.9,248.7,137.5,248.5z"/>
	<path class="st1" d="M143.3,246.7c-0.5,0.2-1,0.3-1.5,0.5C142.3,247,142.8,246.8,143.3,246.7z"/>
	<path class="st1" d="M165.8,214.6c-0.6,0.5-1.2,1.1-1.8,1.6C164.6,215.7,165.2,215.2,165.8,214.6
		C165.8,214.6,165.8,214.6,165.8,214.6z"/>
	<path class="st1" d="M162,218c0,0-0.1,0.1-0.1,0.1c-10.2,8.2-21.8,13.7-34.8,16.2c13-2.6,24.6-8,34.8-16.2
		C161.9,218,161.9,218,162,218z"/>
	<path class="st1" d="M99.5,56.7c-0.7-3.4-2.4-5.7-5.2-6.7C97.1,51,98.8,53.3,99.5,56.7z"/>
	<path class="st1" d="M131.5,250.1c-0.7,0.2-1.3,0.3-2,0.5C130.2,250.5,130.8,250.3,131.5,250.1z"/>
	<path class="st1" d="M165.8,214.6c-0.6,0.5-1.2,1.1-1.8,1.6c-0.6,0.6-1.3,1.1-2,1.7c0,0-0.1,0.1-0.1,0.1
		c-10.2,8.2-21.8,13.7-34.8,16.2c-5.9,1.2-12.1,1.8-18.6,1.8c-20.6,0-32.8-4.4-36.7-13.2c-0.3-0.7-0.5-1.4-0.7-2.1
		c-0.4-1.5-0.6-3-0.6-4.7c0-3.7,1.2-11.6,3.5-23.6L94.6,88.4c3.5-16.7,5.2-26,5.2-27.9c0-1.4-0.1-2.7-0.3-3.8
		c-0.7-3.4-2.4-5.7-5.2-6.7c-1.2-0.5-2.7-0.7-4.3-0.7c-1.2,0-2.7,0.1-4.3,0.4c-5.8,0.9-14.1,3.4-25,7.5c1.9,2.3,3.1,4.8,3.6,7.4
		c0.2,0.9,0.2,1.8,0.2,2.7c0,0.2,0,0.5,0,0.7c0,0.5,0,1.1-0.1,1.7c-0.3,3.9-1.1,9.5-2.6,16.7l-11.2,56.1l-11.2,56.1
		c-2.8,13.9-4.3,23.4-4.7,28.5c0,0.7-0.1,1.4-0.1,1.9c0,1.1,0.1,2.2,0.2,3.3c0.2,1.6,0.5,3.1,0.9,4.6c3.8,13,18,19.5,42.5,19.5
		c2.4,0,4.8,0,7.2-0.1c0.9,0,1.7-0.1,2.6-0.1c1.5-0.1,3-0.1,4.4-0.2c1.1-0.1,2.1-0.2,3.2-0.2c1.2-0.1,2.5-0.2,3.7-0.3
		c1.2-0.1,2.3-0.2,3.5-0.4c1.1-0.1,2.2-0.2,3.2-0.3c1.2-0.1,2.5-0.3,3.7-0.5c1-0.1,1.9-0.3,2.9-0.4c1.3-0.2,2.6-0.4,3.9-0.6
		c0.8-0.1,1.7-0.3,2.5-0.4c1.4-0.3,2.7-0.5,4-0.8c0.8-0.2,1.5-0.3,2.3-0.5c1.4-0.3,2.8-0.6,4.1-1c0.7-0.2,1.3-0.3,2-0.5
		c1.4-0.4,2.8-0.8,4.2-1.2c0.6-0.2,1.2-0.3,1.8-0.5c1.5-0.4,2.9-0.9,4.3-1.3c0.5-0.2,1-0.3,1.5-0.5c1.5-0.5,3-1,4.4-1.5
		c0.4-0.2,0.9-0.3,1.3-0.5c1.5-0.6,3-1.2,4.5-1.8c0.4-0.1,0.7-0.3,1-0.4c1.5-0.6,3.1-1.3,4.6-2c0.3-0.1,0.5-0.3,0.8-0.4
		c1.6-0.7,3.1-1.5,4.7-2.3c0.2-0.1,0.4-0.2,0.6-0.3c1.6-0.8,3.2-1.7,4.8-2.5c0.1-0.1,0.2-0.1,0.3-0.2c1.7-0.9,3.3-1.9,4.9-2.8
		c0,0,0,0,0,0C174.9,222,170.2,217.1,165.8,214.6z"/>
</g>
</svg>
