<?xml version="1.0" standalone="no"?>
<!DOCTYPE svg PUBLIC "-//W3C//DTD SVG 20010904//EN"
 "http://www.w3.org/TR/2001/REC-SVG-20010904/DTD/svg10.dtd">
<svg version="1.0" xmlns="http://www.w3.org/2000/svg"
 width="1036.000000pt" height="1036.000000pt" viewBox="0 0 1036.000000 1036.000000"
 preserveAspectRatio="xMidYMid meet">
<metadata>
Created by potrace 1.11, written by Peter Selinger 2001-2013
</metadata>
<g transform="translate(0.000000,1036.000000) scale(0.100000,-0.100000)"
fill="#000000" stroke="none">
<path d="M6197 10294 c-1 -1 -65 -5 -142 -8 -156 -6 -310 -14 -370 -21 -22 -2
-78 -7 -124 -10 -45 -4 -91 -8 -101 -10 -11 -2 -50 -7 -87 -10 -37 -4 -76 -9
-87 -11 -10 -2 -44 -6 -75 -10 -31 -3 -65 -8 -76 -10 -10 -2 -37 -6 -60 -9
-53 -8 -152 -24 -190 -30 -16 -3 -41 -8 -54 -10 -14 -2 -47 -9 -75 -14 -28 -6
-62 -13 -76 -15 -24 -4 -290 -63 -320 -70 -8 -2 -51 -13 -95 -24 -91 -23 -158
-41 -265 -72 -41 -12 -79 -23 -85 -24 -5 -1 -15 -5 -21 -8 -6 -4 -21 -9 -35
-12 -13 -2 -51 -14 -84 -25 -32 -12 -68 -23 -80 -26 -41 -9 -452 -163 -560
-210 -16 -8 -66 -29 -110 -48 -180 -78 -459 -212 -567 -274 -32 -17 -58 -29
-58 -25 0 4 -4 2 -8 -4 -4 -6 -38 -28 -77 -49 -109 -59 -110 -60 -115 -65 -3
-3 -21 -14 -40 -24 -152 -83 -488 -318 -616 -431 -12 -11 -40 -35 -63 -53
-121 -100 -321 -319 -415 -457 -81 -119 -85 -125 -99 -157 -6 -16 -15 -28 -19
-28 -4 0 -8 -5 -8 -10 0 -6 -12 -34 -26 -63 -46 -95 -107 -281 -120 -367 -14
-102 -18 -148 -18 -245 0 -100 5 -164 19 -235 2 -14 7 -38 11 -55 9 -47 54
-196 71 -235 8 -19 19 -44 23 -55 4 -11 15 -36 23 -55 9 -19 20 -48 26 -63 13
-33 24 -34 44 -3 9 13 22 29 29 37 7 8 36 41 63 74 28 33 55 65 60 71 6 6 28
32 50 59 184 221 506 557 745 775 57 52 111 103 122 113 10 9 22 17 28 17 6 0
10 4 10 8 0 5 37 40 82 77 46 38 88 75 94 82 6 7 16 13 22 13 6 0 12 4 14 8 2
4 23 23 47 42 25 19 53 42 62 50 61 53 215 164 380 275 57 39 108 74 114 78
16 12 126 82 175 110 25 14 79 45 120 69 41 23 89 51 105 60 80 47 443 224
475 232 3 1 14 6 25 12 11 6 70 30 130 53 61 24 119 47 130 52 46 20 244 86
284 94 9 2 42 13 74 24 31 11 57 18 57 16 0 -2 16 3 35 11 19 8 35 12 35 9 0
-3 8 -1 18 4 9 5 31 11 47 15 17 3 55 12 85 20 30 8 69 17 85 20 17 2 30 5 30
6 0 2 9 4 20 5 21 3 54 9 95 19 14 3 39 8 55 10 17 3 39 7 50 9 26 6 87 15
150 23 28 3 59 8 70 11 11 2 43 6 70 8 28 3 73 7 100 11 348 40 824 35 1140
-11 80 -12 234 -43 244 -50 4 -2 22 -7 40 -10 37 -6 176 -54 236 -81 22 -10
42 -18 45 -19 3 0 10 -3 15 -7 6 -3 33 -18 60 -33 57 -31 135 -87 180 -127 17
-14 39 -35 50 -45 31 -27 115 -138 115 -150 0 -6 3 -13 8 -15 11 -5 72 -130
82 -169 5 -19 15 -59 24 -89 31 -114 38 -301 18 -450 -12 -95 -49 -248 -73
-305 -7 -16 -13 -32 -13 -35 -7 -33 -88 -203 -135 -282 -9 -14 -29 -48 -45
-75 -26 -44 -123 -181 -136 -193 -17 -15 -90 -114 -90 -121 0 -5 -7 -9 -15 -9
-8 0 -15 -4 -15 -9 0 -21 -365 -391 -386 -391 -3 0 -18 -12 -33 -27 -15 -16
-42 -39 -61 -53 -18 -14 -40 -32 -49 -40 -9 -9 -68 -56 -131 -105 -131 -101
-94 -93 -355 -81 -189 9 -217 9 -340 1 -130 -8 -225 -19 -280 -32 -11 -3 -27
-6 -35 -7 -8 -1 -42 -11 -75 -20 -33 -10 -64 -19 -70 -21 -11 -2 -29 -10 -109
-44 -80 -35 -177 -105 -244 -175 -34 -36 -62 -68 -62 -71 0 -3 -8 -15 -18 -26
-11 -10 -25 -32 -33 -47 -7 -15 -23 -40 -35 -57 -18 -25 -115 -220 -114 -227
1 -2 -13 -37 -30 -78 -18 -41 -33 -79 -34 -85 -1 -5 -17 -53 -34 -106 -17 -53
-33 -107 -36 -120 -2 -13 -9 -37 -15 -52 -16 -41 -14 -44 22 -51 17 -3 42 -8
55 -11 12 -3 32 -7 45 -10 12 -3 42 -8 67 -11 25 -3 48 -8 51 -10 8 -5 178
-16 234 -16 56 0 245 12 275 17 14 2 49 7 79 10 30 4 63 9 75 11 12 2 35 7 51
10 42 7 227 53 245 61 8 3 20 7 25 9 6 1 36 12 69 23 56 20 62 20 125 5 36 -8
77 -17 91 -19 14 -2 25 -4 25 -5 0 -2 17 -6 55 -14 52 -12 68 -16 175 -46 61
-17 124 -35 140 -40 17 -5 66 -20 110 -35 44 -15 85 -28 90 -29 9 -1 145 -53
200 -76 152 -63 346 -162 432 -221 23 -16 44 -29 47 -29 3 0 14 -7 23 -14 10
-8 41 -32 69 -53 110 -81 232 -209 310 -324 60 -90 136 -234 127 -243 -3 -3
-1 -6 5 -6 7 0 11 -3 10 -7 -2 -5 2 -21 9 -38 22 -57 26 -70 28 -75 0 -3 4
-14 8 -25 6 -19 9 -32 22 -103 3 -15 8 -34 11 -42 31 -82 48 -425 31 -615 -15
-166 -77 -434 -117 -507 -6 -10 -10 -22 -10 -26 0 -5 -14 -39 -30 -76 -17 -36
-30 -69 -29 -72 0 -4 -3 -10 -8 -13 -4 -3 -23 -35 -42 -71 -42 -79 -151 -245
-186 -282 -14 -15 -25 -30 -25 -33 0 -15 -219 -240 -311 -320 -230 -200 -446
-344 -701 -468 -124 -61 -252 -117 -265 -117 -5 0 -44 -14 -87 -30 -43 -17
-82 -28 -87 -24 -5 3 -9 1 -9 -4 0 -5 -6 -9 -12 -9 -7 -1 -47 -11 -88 -23 -67
-19 -225 -55 -290 -66 -55 -9 -86 -14 -107 -18 -12 -3 -49 -7 -82 -11 -33 -3
-70 -8 -83 -10 -50 -10 -272 -18 -448 -17 -169 1 -345 8 -345 12 0 1 -20 3
-45 5 -40 3 -79 7 -171 19 -14 2 -50 9 -80 15 -30 6 -63 12 -74 14 -11 1 -25
6 -31 10 -7 4 -29 9 -50 13 -61 10 -295 102 -314 123 -3 3 -17 13 -32 21 -49
27 -135 104 -173 155 -88 116 -115 221 -110 418 2 78 6 151 8 163 3 12 8 45
12 75 3 30 8 61 10 69 5 18 15 82 20 130 2 19 4 35 5 35 2 0 9 35 15 75 2 19
7 46 10 60 3 14 7 37 10 53 3 15 7 39 10 55 3 15 7 38 10 52 3 14 7 39 10 55
3 17 8 44 12 60 3 17 7 39 9 50 1 11 12 65 24 120 11 55 23 114 26 130 2 17 7
37 9 45 2 8 7 31 9 50 3 19 21 112 40 205 19 94 38 186 41 205 3 19 13 69 21
110 9 41 18 84 20 95 4 19 42 214 49 246 2 9 6 34 9 55 4 22 8 46 11 54 2 8 7
27 10 43 3 15 7 39 10 55 3 15 20 97 37 182 17 85 31 161 31 168 0 6 4 12 8
12 5 0 6 6 3 14 -3 8 -1 31 5 52 6 22 13 55 16 74 3 19 8 42 10 50 2 8 7 31
10 50 3 19 8 42 10 50 2 8 7 31 10 50 3 19 10 55 15 80 16 71 40 192 45 225 3
16 12 64 20 105 8 41 17 86 20 100 3 14 8 39 11 55 4 17 8 39 9 50 2 11 4 20
5 20 1 0 4 11 6 25 5 26 52 270 60 305 6 28 24 125 30 155 2 14 9 45 14 70 5
25 12 56 14 70 3 14 7 34 9 45 6 26 19 103 18 110 0 2 5 19 10 37 5 18 12 49
15 68 3 19 7 43 10 52 3 10 7 30 10 45 4 27 15 88 19 108 13 59 38 183 40 195
1 8 7 40 13 70 6 30 14 66 16 80 2 14 12 58 20 97 20 95 28 135 29 151 0 6 3
12 6 12 3 0 7 10 7 23 1 12 5 38 9 57 3 19 8 44 10 55 2 11 8 41 14 68 6 26
14 64 17 83 3 20 8 46 10 58 68 342 82 483 60 606 -28 156 -115 259 -260 308
-83 28 -260 23 -426 -12 -69 -15 -132 -29 -140 -31 -8 -2 -51 -14 -95 -25 -44
-12 -150 -44 -235 -73 -85 -28 -159 -52 -165 -53 -5 -1 -55 -19 -110 -39 -55
-21 -128 -48 -162 -60 l-63 -22 35 -46 c101 -132 140 -239 139 -382 0 -122 -7
-193 -35 -365 -6 -36 -12 -78 -15 -95 -2 -16 -6 -41 -9 -55 -5 -26 -11 -58
-21 -112 -3 -18 -16 -87 -30 -153 -14 -66 -27 -131 -29 -145 -4 -25 -20 -104
-30 -150 -3 -14 -8 -41 -11 -60 -7 -41 -12 -63 -14 -70 -1 -3 -2 -8 -2 -11 1
-4 -3 -22 -9 -40 -5 -19 -12 -52 -15 -73 -2 -22 -10 -60 -16 -85 -6 -25 -11
-53 -13 -61 -5 -38 -21 -119 -25 -122 -1 -2 -3 -12 -4 -23 -2 -11 -13 -69 -26
-130 -12 -60 -23 -119 -25 -130 -2 -11 -15 -81 -31 -155 -15 -74 -28 -144 -30
-155 -1 -11 -3 -20 -4 -20 -2 0 -4 -9 -6 -20 -8 -51 -25 -137 -38 -195 -8 -34
-25 -119 -31 -155 -3 -16 -7 -41 -10 -55 -4 -14 -9 -38 -11 -55 -7 -36 -20
-100 -28 -135 -3 -14 -8 -38 -11 -55 -2 -16 -7 -41 -10 -55 -3 -14 -8 -38 -10
-55 -3 -16 -8 -37 -10 -45 -2 -8 -7 -31 -10 -50 -3 -19 -8 -44 -12 -55 -3 -11
-7 -31 -9 -45 -1 -14 -5 -36 -9 -50 -3 -14 -8 -34 -9 -45 -4 -20 -11 -58 -21
-105 -3 -14 -8 -38 -11 -54 -2 -16 -7 -32 -9 -36 -2 -4 -7 -31 -10 -60 -4 -30
-9 -58 -12 -63 -3 -4 -7 -23 -10 -40 -6 -42 -5 -36 -58 -297 -25 -123 -47
-239 -49 -257 -3 -18 -7 -37 -10 -42 -3 -5 -8 -24 -10 -43 -3 -18 -7 -45 -10
-58 -3 -14 -8 -37 -11 -52 -10 -55 -16 -83 -20 -98 -2 -8 -7 -30 -10 -49 -3
-18 -23 -120 -44 -225 -22 -105 -41 -204 -44 -221 -3 -16 -13 -66 -22 -110 -9
-44 -18 -91 -20 -105 -2 -14 -4 -25 -5 -25 -2 0 -5 -15 -19 -90 -6 -33 -13
-71 -16 -85 -3 -14 -12 -59 -20 -100 -8 -41 -17 -86 -20 -100 -3 -14 -8 -38
-10 -55 -4 -30 -15 -97 -20 -125 -2 -8 -10 -55 -19 -103 -9 -48 -14 -92 -11
-97 3 -6 2 -10 -2 -10 -5 0 -10 -15 -12 -33 -5 -51 -9 -82 -11 -82 0 0 -3 -20
-6 -45 -2 -25 -6 -61 -9 -80 -22 -139 -24 -347 -6 -427 6 -27 13 -59 15 -73
10 -53 16 -73 35 -123 62 -164 149 -283 296 -403 171 -141 495 -265 805 -308
79 -11 127 -17 170 -21 233 -24 684 -24 1085 0 130 8 223 15 255 20 33 4 107
12 190 20 76 7 146 16 161 21 9 2 36 6 60 9 24 2 55 7 69 10 14 3 40 6 58 7
18 1 35 5 38 10 3 4 9 6 14 3 5 -3 28 -1 52 4 40 9 105 20 155 26 12 2 26 6
32 9 6 4 28 9 51 11 22 2 57 9 77 14 31 9 196 49 276 67 9 2 25 6 35 8 9 2 60
16 112 31 52 15 99 28 103 29 5 0 99 32 210 69 111 37 207 69 212 71 6 2 19 6
30 11 11 4 49 19 85 32 36 14 83 33 105 43 65 28 80 33 88 32 4 -1 7 2 7 8 0
5 6 10 13 10 28 0 540 246 557 268 3 4 10 8 16 9 7 1 51 25 99 53 48 27 91 50
96 50 4 0 9 4 11 8 4 10 105 72 118 72 6 0 10 3 10 8 0 4 17 16 37 27 20 11
41 25 47 30 6 6 38 29 71 51 108 72 280 199 335 246 8 7 32 28 55 46 185 154
402 372 527 530 29 37 56 69 60 70 5 2 8 8 8 13 0 6 11 21 25 35 14 14 25 29
25 34 0 5 6 15 13 22 22 24 77 108 77 118 0 6 5 10 10 10 6 0 10 5 10 10 0 6
12 29 27 53 15 23 34 53 41 67 38 68 66 126 68 138 1 7 8 20 15 28 21 25 138
331 154 404 2 8 11 44 20 80 9 36 18 74 20 85 4 22 12 67 19 102 3 11 7 43 11
70 4 26 8 59 10 72 17 104 22 390 10 496 -3 33 -8 74 -10 90 -1 17 -5 37 -8
45 -3 8 -8 33 -11 56 -6 46 -55 216 -84 289 -27 71 -114 249 -124 253 -4 2 -8
8 -8 14 0 21 -177 269 -245 343 -77 84 -117 125 -172 175 -108 100 -137 125
-193 167 -30 24 -64 50 -75 59 -37 30 -282 191 -341 225 -171 96 -505 253
-547 257 -4 1 -20 8 -35 15 -41 22 -52 26 -237 88 -49 16 -97 33 -105 36 -8 3
-22 7 -30 9 -32 6 -90 28 -90 33 0 4 20 17 45 31 25 14 45 28 45 32 0 5 4 8
10 8 15 0 332 220 435 302 215 171 256 206 393 333 140 130 266 264 367 390
22 28 45 56 52 63 20 21 157 223 188 277 15 28 31 52 34 55 11 9 116 226 126
260 1 3 9 22 18 43 17 40 72 213 81 257 3 14 10 43 15 65 5 22 12 58 15 80 4
22 8 54 11 70 15 93 22 338 11 390 -3 17 -17 106 -21 140 -1 6 -4 17 -7 25 -3
8 -12 38 -19 65 -16 64 -66 189 -96 237 -13 21 -23 44 -23 53 0 8 -5 15 -10
15 -6 0 -14 8 -17 18 -8 20 -71 107 -102 139 -12 12 -21 25 -21 28 0 13 -178
175 -263 239 -130 97 -416 264 -429 250 -3 -2 -11 2 -18 11 -7 8 -19 15 -27
15 -7 0 -30 8 -51 19 -70 35 -380 134 -492 157 -14 3 -34 7 -45 9 -11 2 -31 7
-45 10 -14 3 -41 8 -60 11 -19 3 -42 7 -50 9 -19 5 -62 12 -125 20 -27 4 -61
8 -75 10 -51 7 -137 16 -195 20 -33 3 -96 7 -140 11 -75 5 -574 12 -578 8z
m588 -89 c39 -3 104 -8 145 -10 41 -3 89 -8 105 -10 31 -6 57 -9 141 -19 28
-4 61 -9 75 -11 13 -3 35 -7 49 -10 14 -2 50 -9 80 -15 30 -7 69 -14 85 -16
17 -3 53 -12 80 -20 28 -9 63 -18 79 -21 29 -5 209 -62 256 -81 14 -5 45 -18
70 -28 160 -63 418 -205 505 -276 6 -5 33 -25 60 -45 47 -35 221 -204 256
-249 58 -75 177 -274 163 -274 -2 0 3 -14 12 -31 9 -17 23 -54 31 -82 24 -80
28 -104 49 -247 5 -31 4 -222 -1 -270 -14 -148 -23 -198 -60 -350 -10 -40 -56
-172 -79 -230 -105 -252 -286 -533 -486 -755 -126 -140 -402 -404 -468 -447
-15 -10 -22 -18 -17 -18 6 0 -3 -9 -20 -19 -16 -11 -43 -31 -60 -45 -16 -14
-34 -29 -40 -34 -25 -20 -205 -152 -250 -183 -27 -18 -52 -36 -55 -39 -3 -3
-39 -27 -80 -55 -41 -27 -76 -53 -78 -57 -2 -5 -7 -8 -12 -8 -5 0 -53 -28
-107 -63 -162 -103 -162 -103 -110 -112 14 -3 57 -16 96 -29 39 -13 71 -22 71
-20 0 3 8 0 18 -5 11 -6 30 -12 43 -15 37 -7 294 -95 354 -121 82 -36 181 -75
191 -75 6 0 17 -7 24 -15 6 -8 15 -13 18 -12 10 3 222 -103 332 -166 105 -59
287 -175 310 -198 8 -8 34 -27 58 -43 23 -16 42 -33 42 -37 0 -5 5 -9 11 -9 6
0 16 -6 23 -12 8 -7 38 -33 67 -58 206 -172 422 -433 535 -650 39 -72 98 -203
109 -240 1 -3 9 -30 19 -60 29 -90 47 -163 42 -167 -3 -3 -1 -16 5 -30 5 -13
11 -48 14 -76 3 -29 8 -65 11 -82 8 -42 7 -264 -1 -360 -4 -44 -9 -102 -11
-130 -1 -27 -5 -61 -8 -75 -9 -41 -15 -73 -21 -105 -3 -16 -7 -40 -9 -51 -7
-33 -47 -187 -53 -204 -3 -8 -7 -19 -9 -25 -1 -5 -9 -29 -18 -52 -8 -24 -12
-43 -8 -43 4 0 3 -4 -3 -8 -9 -6 -33 -61 -38 -87 -1 -5 -4 -12 -7 -15 -3 -3
-17 -33 -30 -67 -14 -35 -28 -63 -32 -63 -5 0 -8 -9 -8 -19 0 -11 -4 -22 -9
-26 -5 -3 -21 -29 -35 -58 -46 -93 -186 -314 -210 -329 -6 -5 -7 -8 -1 -8 6 0
6 -3 0 -8 -6 -4 -38 -41 -71 -83 -151 -192 -362 -404 -559 -564 -27 -22 -65
-55 -85 -72 -21 -18 -40 -30 -44 -26 -3 3 -6 1 -6 -5 0 -5 -15 -19 -32 -31
-18 -11 -42 -28 -54 -38 -11 -10 -27 -22 -36 -28 -8 -5 -84 -56 -168 -112
-149 -100 -169 -111 -171 -95 0 4 -2 16 -4 27 -2 11 -6 36 -8 55 -2 19 -7 42
-10 50 -4 8 -9 26 -11 40 -6 32 -34 107 -49 134 -6 12 -12 23 -12 26 -1 9 -38
75 -44 80 -3 3 -19 23 -36 45 -31 41 -81 92 -137 137 l-33 28 30 27 c35 32
136 142 178 194 15 18 37 45 49 59 30 36 134 192 169 253 126 219 217 480 253
727 32 216 25 572 -14 725 -6 22 -12 50 -13 62 -2 12 -6 26 -10 29 -4 4 -7 18
-7 30 0 12 -14 60 -30 106 -17 46 -32 88 -33 94 -7 31 -86 179 -137 255 -91
136 -188 240 -336 359 -11 8 -41 30 -69 47 -27 18 -55 37 -62 43 -7 5 -16 10
-22 10 -5 0 -11 4 -13 9 -3 8 -66 44 -188 107 -83 43 -241 114 -268 120 -15 4
-31 10 -37 14 -13 10 -242 90 -274 96 -13 3 -32 9 -41 14 -9 5 -28 11 -41 14
-13 3 -67 17 -119 32 -130 36 -161 44 -190 50 -14 3 -43 10 -65 16 -22 5 -49
12 -60 14 -11 2 -31 6 -45 9 -14 3 -36 7 -49 10 -13 2 -26 6 -28 9 -3 2 -26
-5 -51 -16 -71 -30 -286 -91 -367 -103 -5 -1 -13 -3 -17 -5 -14 -5 -22 -6 -93
-14 -38 -5 -79 -10 -90 -12 -23 -5 -210 -15 -275 -15 -97 0 -221 13 -330 36
-8 2 -21 4 -28 4 -14 1 -14 3 20 111 11 36 21 72 23 80 2 8 27 73 55 144 133
330 260 501 450 604 97 53 232 94 375 116 22 4 52 9 66 11 23 4 145 12 287 18
28 1 52 0 52 -3 0 -3 44 -6 98 -6 53 -1 143 -4 200 -7 63 -4 102 -3 102 3 0 6
7 10 15 10 8 0 15 5 15 10 0 6 6 10 14 10 8 0 16 3 18 8 3 7 75 65 134 107 15
11 34 27 42 35 9 8 28 25 44 37 113 83 357 314 509 480 110 121 298 383 349
488 8 17 18 32 21 35 18 15 124 274 135 329 3 14 8 29 12 35 3 6 7 16 8 21 1
6 5 26 8 45 4 19 9 43 12 52 23 78 40 388 20 388 -5 0 -3 6 3 13 6 8 8 17 5
20 -4 3 -9 26 -11 49 -18 161 -102 363 -201 487 -38 48 -163 171 -173 171 -3
0 -17 9 -30 21 -34 29 -146 94 -226 130 -139 63 -329 117 -498 144 -11 2 -36
6 -55 9 -32 5 -65 9 -170 21 -197 22 -725 22 -895 1 -16 -2 -61 -7 -100 -11
-110 -10 -148 -14 -171 -19 -12 -2 -45 -7 -75 -11 -30 -4 -76 -11 -104 -17
-27 -5 -66 -11 -85 -13 -19 -3 -46 -8 -60 -11 -26 -8 -38 -10 -80 -17 -14 -2
-38 -7 -55 -11 -16 -3 -40 -8 -53 -11 -13 -2 -32 -7 -42 -10 -10 -3 -27 -8
-37 -10 -108 -23 -497 -140 -578 -175 -11 -4 -58 -23 -105 -40 -201 -77 -680
-301 -688 -322 -2 -4 -7 -8 -12 -8 -17 0 -322 -179 -328 -192 -2 -5 -8 -8 -13
-8 -5 0 -52 -29 -105 -65 -53 -36 -100 -65 -105 -65 -4 0 -9 -3 -11 -7 -1 -5
-32 -28 -68 -53 -36 -24 -69 -48 -75 -52 -104 -81 -156 -118 -165 -118 -6 0
-9 -4 -5 -9 3 -5 -3 -12 -12 -15 -10 -4 -32 -19 -49 -34 -17 -15 -46 -38 -64
-52 -18 -14 -42 -33 -54 -44 -11 -10 -36 -30 -55 -45 -19 -14 -44 -35 -56 -46
-11 -11 -49 -45 -84 -75 -170 -146 -551 -522 -696 -684 -38 -44 -83 -94 -100
-112 -16 -18 -44 -50 -62 -71 -89 -107 -177 -208 -183 -211 -10 -4 -89 207
-95 253 -1 11 -3 20 -5 20 -3 0 -14 65 -28 165 -14 94 -6 292 14 380 7 32 22
98 28 129 3 12 10 29 15 35 6 7 12 21 15 32 24 111 167 360 295 514 83 99 127
145 281 290 78 73 317 260 405 315 17 10 36 25 43 32 7 7 20 13 28 13 8 0 14
4 14 8 0 5 11 14 25 20 14 7 31 17 38 22 18 16 137 90 143 90 3 0 18 8 32 19
27 18 65 40 233 131 128 70 414 210 428 210 6 0 11 5 11 12 0 6 3 9 6 5 4 -3
25 4 48 15 22 12 43 23 46 23 3 1 23 9 45 19 44 19 288 118 400 161 112 44
449 155 454 150 2 -3 9 -1 15 4 10 8 99 37 142 45 11 3 33 9 49 16 17 6 30 11
30 10 0 -1 20 3 45 10 25 7 52 13 60 15 8 2 44 11 80 20 66 17 87 22 129 31
12 3 51 11 85 19 33 8 72 16 86 19 14 2 45 9 69 15 25 5 49 8 53 5 4 -3 8 -1
8 3 0 5 8 9 18 9 23 1 81 10 177 28 44 8 104 17 134 21 30 4 63 9 75 11 23 5
47 8 141 18 33 4 71 9 85 11 23 4 75 10 175 20 66 6 228 18 263 19 17 0 32 4
32 8 0 5 8 4 19 -1 10 -6 21 -8 24 -4 3 3 75 7 159 10 84 3 154 6 155 7 4 4
502 -3 568 -9z"/>
</g>
</svg>
